<?xml version="1.0" standalone="no"?>
<!DOCTYPE svg PUBLIC "-//W3C//DTD SVG 20010904//EN"
 "http://www.w3.org/TR/2001/REC-SVG-20010904/DTD/svg10.dtd">
<svg version="1.0" xmlns="http://www.w3.org/2000/svg"
 width="1024.000000pt" height="1024.000000pt" viewBox="0 0 1024.000000 1024.000000"
 preserveAspectRatio="xMidYMid meet">
<metadata>
Created by potrace 1.14, written by Peter Selinger 2001-2017
</metadata>
<g transform="translate(0.000000,1024.000000) scale(0.100000,-0.100000)"
fill="#000000" stroke="none">
<path d="M5005 9089 c-125 -18 -234 -65 -705 -302 -261 -132 -538 -272 -615
-312 -77 -40 -482 -244 -900 -453 -541 -272 -780 -397 -830 -434 -138 -105
-250 -271 -298 -443 l-22 -80 -3 -1795 c-2 -1249 0 -1824 8 -1890 19 -167 92
-347 193 -478 65 -85 208 -213 293 -263 44 -26 264 -141 489 -257 624 -319
772 -395 1005 -517 768 -401 1175 -607 1242 -630 175 -58 347 -56 524 6 49 17
238 109 419 204 348 182 775 402 1710 879 314 161 604 315 645 343 204 138
349 343 417 588 l28 100 0 1850 0 1850 -23 84 c-59 214 -168 371 -332 476 -36
23 -531 276 -1100 562 -569 287 -1182 595 -1362 686 -332 169 -428 207 -563
227 -81 11 -136 11 -220 -1z m11 -265 c29 -101 36 -88 -82 -144 -59 -27 -110
-50 -114 -50 -4 0 -19 28 -34 62 -22 50 -25 64 -14 74 18 17 211 104 223 101
5 -2 15 -21 21 -43z m340 -5 c60 -28 110 -53 112 -54 8 -7 -58 -135 -70 -135
-7 0 -31 10 -53 23 -22 13 -66 33 -97 46 -32 13 -58 26 -58 30 1 25 45 141 54
141 2 0 52 -23 112 -51z m340 -170 c30 -17 54 -37 54 -45 0 -7 -12 -38 -26
-67 l-27 -54 -58 34 c-33 20 -59 38 -59 40 0 11 53 123 58 123 2 0 29 -14 58
-31z m-1070 -39 l31 -60 -60 -34 -61 -34 -28 60 c-15 33 -28 63 -28 68 0 11
81 59 100 60 8 0 29 -27 46 -60z m589 -78 c22 -9 110 -54 195 -98 85 -45 454
-233 820 -417 366 -185 735 -372 820 -417 85 -44 308 -157 494 -250 187 -94
355 -182 374 -196 43 -34 71 -95 72 -157 l0 -49 -137 6 c-76 3 -160 8 -186 11
-42 6 -52 4 -73 -16 -34 -32 -33 -90 2 -118 31 -24 78 -27 114 -6 18 10 61 14
153 15 l127 0 0 -135 0 -135 -194 0 c-190 0 -195 -1 -210 -22 -21 -30 -20 -54
4 -78 19 -19 33 -20 210 -20 l190 0 0 -140 0 -140 -247 0 c-202 1 -252 3 -267
15 -11 8 -38 15 -60 15 -54 0 -86 -30 -86 -83 0 -78 98 -129 150 -77 19 19 33
20 265 20 l245 0 0 -208 0 -208 -34 4 c-27 3 -37 11 -47 34 -59 143 -251 177
-367 65 -19 -18 -42 -49 -53 -69 l-19 -38 -256 0 -255 0 -24 -25 c-35 -34 -34
-86 1 -114 25 -20 39 -21 285 -21 143 0 259 -4 259 -8 0 -22 80 -97 124 -118
102 -48 216 -16 286 79 29 39 40 47 67 47 l33 0 0 -130 0 -130 -516 -2 c-489
-3 -517 -2 -545 16 -23 14 -42 17 -86 14 -48 -4 -61 -10 -85 -37 -72 -80 5
-213 115 -198 21 3 49 15 61 26 22 21 29 21 539 21 l517 0 0 -365 0 -365 -38
0 c-35 0 -41 4 -70 48 -89 138 -304 139 -392 3 l-32 -48 -381 -5 -381 -5 -40
23 c-48 28 -73 29 -121 10 -44 -19 -75 -69 -75 -123 0 -33 7 -50 31 -77 49
-56 118 -61 177 -11 l30 25 375 0 375 0 35 -49 c86 -119 188 -149 306 -90 58
29 111 84 111 116 0 14 25 20 63 15 l27 -4 0 -129 0 -128 -597 -3 c-460 -2
-606 0 -632 10 -91 33 -181 -13 -181 -95 0 -43 18 -79 47 -99 34 -22 109 -20
142 3 25 17 57 18 624 15 l597 -4 0 -114 0 -114 -831 0 -831 0 -20 25 c-34 44
-103 77 -171 82 -197 16 -338 -199 -248 -375 12 -23 21 -45 21 -51 0 -5 -34
-51 -76 -103 -42 -51 -131 -164 -198 -252 -66 -87 -126 -164 -132 -172 -8 -10
-35 -14 -94 -14 -76 0 -85 2 -120 30 -54 43 -106 62 -170 63 -70 0 -119 -16
-176 -59 -42 -32 -49 -34 -122 -34 l-77 1 -120 151 c-66 84 -147 186 -180 228
-33 41 -75 94 -93 118 l-34 42 26 52 c31 61 35 156 11 216 -38 90 -147 162
-246 162 -66 0 -149 -37 -181 -81 l-22 -29 -828 0 -828 0 0 115 0 115 318 0
317 0 35 -47 c54 -72 108 -106 180 -111 53 -4 69 0 126 28 53 26 72 42 97 81
l30 49 87 0 c102 0 143 12 159 46 17 37 14 60 -13 91 -23 27 -28 28 -129 31
-99 4 -105 5 -115 27 -6 13 -27 42 -47 64 -99 110 -286 89 -370 -41 l-30 -47
-322 0 -323 -1 0 135 0 135 189 0 189 0 40 -54 c108 -142 295 -140 398 5 l36
49 84 0 c77 0 87 2 109 25 27 26 31 51 14 89 -16 35 -57 48 -138 45 l-69 -4
-34 50 c-51 77 -104 109 -189 113 -60 4 -77 1 -125 -23 -54 -26 -114 -90 -114
-122 0 -10 -38 -13 -195 -13 l-195 0 0 150 0 150 554 0 c491 0 555 -2 560 -16
3 -8 27 -24 52 -36 40 -17 53 -19 85 -9 119 36 135 193 23 242 -47 21 -96 16
-139 -15 -17 -11 -103 -14 -500 -15 -264 -1 -515 1 -558 5 l-77 7 0 133 0 134
503 0 c490 0 504 -1 522 -20 39 -43 136 -38 185 11 26 26 30 38 30 83 0 65
-24 100 -78 117 -41 12 -111 -1 -130 -24 -8 -9 -124 -11 -521 -9 l-511 2 0
130 0 130 218 0 218 0 30 -40 c39 -54 106 -98 162 -106 90 -13 192 33 234 106
23 40 23 40 84 40 80 0 114 24 114 79 0 58 -36 87 -106 84 -54 -2 -54 -1 -74
37 -51 100 -151 152 -251 131 -89 -19 -143 -61 -174 -133 l-15 -38 -220 0
-220 0 0 210 0 209 259 3 c258 3 260 3 281 -19 35 -37 113 -28 147 16 7 9 13
34 13 57 0 75 -71 112 -145 74 -37 -19 -57 -20 -297 -20 l-258 0 0 140 0 140
242 0 c266 0 278 3 278 61 0 57 -8 59 -276 59 l-244 0 0 130 0 130 104 0 c84
0 108 3 124 18 34 29 37 58 9 86 -24 24 -28 25 -131 19 l-106 -6 0 39 c0 116
46 162 266 270 88 42 305 152 484 244 179 92 550 281 825 420 275 139 646 327
825 418 179 91 345 176 370 189 55 27 138 29 195 5z m-864 -57 c16 -35 29 -67
29 -70 0 -6 -181 -98 -184 -93 -9 12 -56 121 -56 128 0 7 160 97 178 99 2 1
16 -28 33 -64z m1690 9 c64 -33 70 -39 64 -61 -9 -38 -46 -113 -55 -113 -4 0
-47 18 -94 41 -98 46 -99 49 -62 134 29 63 22 63 147 -1z m308 -161 l59 -37
-24 -55 c-14 -31 -29 -60 -34 -65 -4 -4 -28 6 -53 23 -25 17 -50 31 -56 31 -6
0 -11 6 -11 14 0 16 48 126 55 126 3 0 32 -17 64 -37z m-2345 -25 c14 -29 26
-57 26 -62 0 -12 -117 -72 -124 -65 -6 6 -46 108 -46 118 0 9 96 61 111 61 4
0 19 -23 33 -52z m2756 -179 c0 -17 -48 -117 -59 -124 -15 -8 -181 69 -181 85
0 6 13 40 30 76 l29 65 91 -46 c49 -26 90 -51 90 -56z m-3052 29 c18 -33 31
-62 30 -63 -11 -10 -177 -95 -184 -95 -11 0 -64 103 -64 123 0 11 152 95 175
96 6 1 25 -27 43 -61z m3336 -177 c6 -10 -40 -117 -54 -126 -4 -2 -32 11 -63
31 l-56 35 27 63 27 64 57 -29 c31 -16 59 -33 62 -38z m-3694 -2 c17 -33 30
-61 28 -62 -1 -1 -30 -16 -64 -34 l-60 -32 -29 57 c-16 31 -29 61 -30 65 0 9
95 67 111 67 6 0 26 -27 44 -61z m-284 -162 c14 -27 24 -50 22 -52 -2 -1 -40
-21 -85 -44 l-81 -40 -34 57 c-18 31 -33 61 -33 65 0 4 36 27 80 52 91 49 86
51 131 -38z m4241 41 c45 -24 83 -47 83 -52 0 -4 -14 -37 -31 -72 l-30 -65
-77 42 c-42 23 -81 46 -86 50 -9 8 40 139 52 139 3 0 43 -19 89 -42z m321
-162 c28 -16 52 -36 52 -44 0 -8 -14 -40 -31 -72 l-31 -58 -58 40 -58 41 31
63 c17 36 34 63 37 62 3 -2 29 -16 58 -32z m-4913 -38 l34 -57 -65 -36 c-36
-20 -67 -35 -69 -33 -7 8 -60 114 -60 121 0 11 98 67 113 64 8 -1 29 -28 47
-59z m-305 -144 c23 -36 40 -67 38 -67 -161 -82 -208 -110 -248 -144 -26 -24
-51 -43 -54 -43 -4 0 -33 21 -66 47 -46 38 -57 51 -49 64 11 22 95 77 194 127
44 23 94 50 110 61 17 11 31 20 32 20 0 1 20 -29 43 -65z m5533 25 c86 -43
203 -116 249 -154 l27 -23 -64 -50 -63 -51 -36 33 c-19 19 -86 60 -148 91 -62
32 -115 60 -117 62 -6 4 56 133 64 133 3 0 42 -19 88 -41z m400 -409 c15 -38
27 -81 27 -95 0 -25 -1 -25 -89 -25 l-89 0 -7 43 c-3 23 -9 50 -11 59 -4 13
12 26 63 52 37 19 70 35 73 36 3 0 18 -31 33 -70z m-6347 34 c33 -15 61 -28
63 -30 2 -1 0 -30 -4 -63 l-7 -61 -90 0 -91 0 7 46 c7 52 40 134 54 134 5 0
36 -12 68 -26z m6366 -351 c9 -8 19 -31 22 -51 8 -50 -8 -152 -25 -163 -8 -5
-44 -9 -80 -9 -91 0 -104 15 -104 120 0 87 15 115 64 123 41 7 104 -4 123 -20z
m-6329 2 c40 -30 44 -168 6 -206 -27 -27 -128 -26 -160 0 -22 17 -24 27 -24
99 0 106 13 122 99 122 36 -1 68 -6 79 -15z m7 -430 c17 -15 20 -31 20 -101 0
-77 -2 -84 -26 -103 -35 -28 -122 -29 -155 -2 -48 39 -33 207 21 223 41 12
118 3 140 -17z m6320 7 c21 -17 23 -27 22 -108 -1 -78 -4 -91 -23 -106 -31
-26 -129 -25 -160 1 -22 18 -24 27 -24 106 1 79 3 89 24 106 32 26 130 26 161
1z m-6319 -448 c16 -14 19 -32 19 -109 0 -117 -11 -130 -106 -129 -90 1 -98
10 -98 122 -1 93 7 115 49 133 30 13 115 2 136 -17z m6297 15 c22 -8 34 -20
42 -45 15 -45 3 -179 -17 -196 -8 -6 -43 -12 -78 -12 -89 -1 -105 15 -111 115
-6 83 6 116 46 136 31 16 77 16 118 2z m-5371 -321 c49 -46 12 -131 -57 -131
-66 0 -98 85 -50 133 27 27 77 26 107 -2z m4784 3 c16 -13 23 -29 23 -54 0
-43 -24 -73 -67 -83 -27 -5 -35 -2 -60 26 -23 26 -28 39 -23 64 12 61 79 86
127 47z m-5721 -161 c43 -23 49 -180 8 -217 -31 -28 -131 -25 -160 5 -20 20
-23 33 -23 103 0 73 2 83 24 100 26 21 118 27 151 9z m6314 -1 c35 -16 49 -66
41 -139 -9 -77 -27 -93 -105 -94 -84 -1 -103 19 -108 114 -4 66 -3 71 26 100
25 25 39 30 76 30 25 0 56 -5 70 -11z m-6302 -446 c15 -13 18 -31 18 -97 0
-45 -4 -86 -8 -92 -25 -38 -134 -47 -173 -15 -22 17 -24 27 -24 100 1 107 13
121 103 121 47 0 71 -5 84 -17z m6322 2 c20 -21 29 -90 19 -150 -10 -58 -32
-75 -105 -75 -61 0 -76 7 -93 41 -26 48 -14 171 17 191 24 14 145 9 162 -7z
m-6326 -455 c23 -21 27 -49 23 -130 -4 -66 -27 -85 -101 -85 -84 1 -103 21
-108 114 -4 64 -2 72 21 95 22 22 35 26 85 26 45 0 63 -5 80 -20z m6325 2 c23
-25 31 -72 22 -138 -6 -52 -9 -57 -43 -71 -48 -20 -117 -12 -146 16 -29 30
-31 158 -2 190 26 29 144 31 169 3z m-5448 -267 c16 -15 25 -36 25 -55 0 -38
-39 -80 -75 -80 -37 0 -75 42 -75 81 0 70 76 103 125 54z m4823 -5 c14 -14 22
-33 22 -55 0 -74 -78 -104 -127 -49 -65 71 35 169 105 104z m-5702 -165 c27
-18 36 -74 25 -144 -11 -67 -28 -81 -102 -81 -78 0 -101 19 -107 91 -5 72 8
121 39 136 33 17 120 16 145 -2z m6325 -4 c22 -18 24 -27 23 -100 -1 -107 -13
-121 -101 -121 -95 0 -121 35 -110 148 8 74 28 92 107 92 42 0 64 -5 81 -19z
m-5202 -246 c47 -24 57 -87 19 -122 -56 -52 -128 -20 -128 56 0 31 6 44 26 60
32 25 46 26 83 6z m-1119 -175 c21 -21 24 -39 20 -130 -2 -76 -21 -93 -97 -93
-81 0 -100 12 -108 72 -9 70 3 138 28 156 33 23 132 20 157 -5z m6322 3 c23
-27 30 -70 22 -141 -6 -62 -8 -65 -42 -79 -48 -20 -117 -12 -146 16 -18 18
-21 33 -21 102 0 73 2 83 24 100 32 26 141 27 163 2z m-4193 -299 c26 -21 31
-33 31 -69 0 -36 -5 -48 -31 -69 -34 -29 -55 -32 -94 -14 -58 26 -71 103 -26
149 37 37 79 38 120 3z m2012 -3 c37 -38 39 -88 5 -128 -20 -23 -32 -28 -67
-27 -55 2 -89 37 -89 93 0 84 91 122 151 62z m-2319 -136 c43 -118 166 -206
268 -192 l37 5 221 -277 c121 -152 237 -292 257 -311 l36 -35 90 2 89 2 0 -30
c0 -70 77 -171 160 -208 129 -59 296 25 336 167 19 69 26 72 143 72 66 0 68 1
107 42 23 24 103 124 178 223 292 382 266 353 306 348 49 -7 109 11 166 50 56
37 91 84 107 145 9 32 16 42 32 42 11 -1 322 1 690 3 369 3 723 2 789 -1 l119
-5 -6 -57 c-6 -65 -32 -123 -75 -163 -29 -27 -289 -160 -1742 -887 -959 -479
-988 -493 -1055 -493 -67 0 -106 19 -1430 683 -1231 618 -1302 655 -1345 689
-51 41 -90 121 -90 185 l0 51 797 -2 798 -3 17 -45z m-1803 -20 c8 -37 12 -67
10 -69 -6 -5 -132 -46 -134 -43 -5 7 -45 154 -45 165 0 8 22 12 78 12 l78 0
13 -65z m6291 42 c0 -27 -36 -137 -49 -150 -6 -6 -107 24 -129 38 -1 1 3 32
10 69 l13 66 77 0 c75 0 78 -1 78 -23z m-6097 -326 c23 -16 93 -54 155 -86 61
-32 112 -62 112 -67 0 -20 -55 -108 -68 -108 -18 0 -184 84 -257 131 -34 21
-86 64 -115 95 l-53 55 51 35 c28 18 54 38 57 44 4 7 21 -5 42 -29 19 -23 54
-54 76 -70z m5915 49 c4 0 13 -4 21 -9 11 -7 10 -15 -8 -45 -46 -74 -204 -180
-376 -252 l-35 -14 -30 52 c-16 29 -30 58 -30 63 0 6 39 29 88 52 153 74 240
130 268 173 l27 40 34 -30 c18 -17 37 -30 41 -30z m-2985 -492 c25 -26 28 -36
22 -67 -13 -77 -96 -107 -148 -53 -19 20 -27 39 -27 64 0 52 9 68 44 83 41 18
75 10 109 -27z m-1880 -118 c26 -16 47 -32 47 -35 0 -6 -50 -107 -56 -114 -2
-2 -97 47 -121 64 -8 5 60 115 71 115 7 0 33 -13 59 -30z m3732 -20 c14 -27
25 -54 25 -59 0 -9 -109 -75 -115 -69 -12 14 -55 111 -51 116 9 9 100 61 108
61 4 1 19 -21 33 -49z m-3414 -140 c38 -23 69 -43 69 -46 0 -2 -14 -32 -30
-65 -34 -67 -20 -67 -137 -2 l-62 34 20 52 c36 91 31 90 140 27z m3119 8 c36
-82 35 -91 -7 -110 -21 -9 -61 -28 -89 -41 l-51 -25 -31 64 -32 64 88 44 c48
25 91 45 95 45 4 1 17 -18 27 -41z m-2760 -205 c0 -12 -39 -90 -55 -111 -7 -9
-114 55 -115 68 0 8 11 39 25 68 l24 53 61 -31 c37 -19 60 -37 60 -47z m2416
12 c13 -31 24 -59 24 -63 0 -7 -103 -62 -115 -62 -6 0 -55 100 -55 112 0 6
103 65 118 68 2 0 14 -25 28 -55z m-2150 -125 c49 -27 93 -51 97 -53 9 -3 -28
-103 -45 -124 -8 -10 -33 -1 -107 39 -53 28 -98 53 -100 54 -2 2 4 22 14 46 9
24 21 53 26 66 5 12 12 22 17 22 5 0 49 -22 98 -50z m1854 -20 c16 -33 30 -62
30 -65 0 -6 -201 -108 -204 -103 -2 4 -24 52 -42 95 l-14 33 97 49 c54 28 99
50 100 50 2 1 16 -26 33 -59z m-1532 -144 c90 -46 89 -44 53 -114 l-31 -61
-52 34 c-29 19 -56 36 -62 38 -8 3 33 127 42 127 1 0 24 -11 50 -24z m1167
-36 c14 -27 25 -54 25 -59 0 -9 -120 -75 -125 -69 -8 10 -44 86 -47 101 -2 13
12 26 47 46 28 16 56 29 62 30 7 1 24 -21 38 -49z m-806 -140 c55 -27 102 -54
106 -60 7 -12 -23 -118 -36 -125 -4 -3 -36 8 -71 24 -130 58 -163 73 -166 76
-6 5 53 135 61 135 4 0 52 -22 106 -50z m511 -10 c16 -33 30 -62 30 -65 0 -10
-222 -116 -234 -112 -11 5 -36 90 -36 123 0 10 40 35 103 64 56 27 103 49 104
50 2 0 16 -27 33 -60z"/>
<path d="M5060 8370 c-43 -43 -8 -130 51 -130 37 0 79 40 79 75 0 61 -87 98
-130 55z"/>
<path d="M5013 8075 c-77 -21 -122 -47 -180 -104 -73 -72 -97 -137 -97 -261 0
-83 3 -102 27 -150 14 -31 42 -74 62 -97 l35 -41 0 -291 0 -291 69 0 c111 0
101 -36 101 351 l0 339 -41 37 c-53 48 -69 81 -69 143 0 57 15 93 57 132 65
62 147 73 224 32 60 -33 100 -89 106 -149 7 -57 -34 -146 -78 -172 l-29 -17 0
-342 0 -341 31 -7 c17 -3 56 -6 85 -6 l54 0 0 293 0 292 45 60 c69 93 95 193
75 292 -32 154 -132 258 -287 298 -70 18 -121 18 -190 0z"/>
<path d="M4475 8035 c-27 -26 -31 -51 -14 -88 17 -38 51 -53 89 -37 57 23 69
93 24 129 -35 28 -69 26 -99 -4z"/>
<path d="M5656 8039 c-37 -29 -37 -89 1 -119 33 -26 68 -20 101 16 29 33 28
69 -3 99 -30 30 -64 32 -99 4z"/>
<path d="M4270 7890 c-31 -31 -27 -93 6 -119 36 -28 70 -26 99 5 27 30 31 54
13 87 -26 49 -83 62 -118 27z"/>
<path d="M5862 7894 c-19 -13 -23 -23 -20 -61 6 -85 81 -109 131 -41 50 67
-41 151 -111 102z"/>
<path d="M6254 7668 c-4 -13 -10 -50 -13 -82 l-6 -59 -80 -29 c-44 -16 -103
-44 -131 -62 l-51 -34 -59 44 c-32 24 -64 44 -70 44 -10 0 -209 -216 -228
-248 -6 -10 8 -31 44 -67 l52 -53 -26 -65 c-14 -36 -26 -74 -26 -85 0 -32 -25
-49 -82 -57 -106 -15 -99 0 -96 -197 l3 -173 50 -8 c28 -4 65 -10 83 -13 18
-3 35 -10 36 -17 2 -7 16 -49 30 -93 l27 -82 -53 -50 -52 -50 26 -33 c47 -63
198 -228 217 -238 15 -8 29 -1 75 41 l57 51 22 -21 c29 -27 121 -69 186 -85
51 -12 51 -12 51 -52 1 -60 16 -126 31 -136 23 -14 282 -11 302 4 10 7 21 42
29 91 l13 78 74 23 c41 13 96 38 123 55 l50 30 38 -34 c58 -53 74 -59 98 -38
12 9 68 71 126 136 l105 120 -19 27 c-11 14 -35 40 -54 57 l-35 31 23 58 c13
32 27 72 30 89 7 31 8 31 96 43 l89 13 3 171 c2 95 0 176 -3 180 -3 4 -44 15
-91 23 l-86 16 -17 62 c-10 33 -25 76 -34 94 l-17 34 60 58 60 58 -70 74 c-39
40 -92 97 -119 126 -26 28 -53 52 -60 52 -7 0 -35 -18 -63 -40 l-50 -40 -60
36 c-33 19 -91 46 -129 59 l-68 24 -12 70 c-6 39 -14 75 -18 81 -4 6 -68 10
-165 10 -156 0 -159 0 -166 -22z m232 -228 c6 -55 9 -61 33 -66 137 -30 184
-48 266 -104 22 -14 45 -30 52 -34 7 -3 22 5 36 20 l24 25 43 -52 44 -52 -29
-24 c-17 -14 -46 -40 -65 -58 l-35 -33 -30 25 c-76 61 -93 42 -36 -39 160
-224 161 -467 4 -647 -84 -96 -231 -171 -335 -171 l-39 0 2 -70 c1 -39 0 -72
-2 -74 -9 -9 -165 16 -223 35 -34 12 -87 38 -120 60 -32 21 -61 39 -64 39 -3
0 -20 -14 -38 -31 l-31 -30 -47 52 -47 52 35 36 c32 34 34 37 19 56 -33 43
-91 177 -104 239 l-12 65 -51 3 -51 3 -3 58 -3 57 54 0 54 0 12 70 c13 84 42
158 82 218 l30 45 -32 33 -32 33 31 39 c51 64 56 66 91 37 l31 -27 42 35 c61
50 134 84 233 110 83 21 85 23 85 52 0 67 8 75 66 75 l53 0 7 -60z"/>
<path d="M6361 7080 c-105 -22 -197 -94 -247 -195 -26 -54 -29 -70 -29 -155 0
-84 3 -102 28 -152 36 -74 119 -150 195 -178 128 -49 299 -3 382 102 54 67 84
168 78 253 -17 205 -216 363 -407 325z m124 -203 c61 -30 95 -85 95 -154 0
-89 -68 -153 -161 -153 -108 0 -181 126 -135 233 33 78 125 112 201 74z"/>
<path d="M3660 7591 c0 -35 -5 -62 -12 -68 -7 -6 -44 -18 -82 -27 -38 -9 -78
-23 -89 -31 -18 -13 -23 -10 -58 36 -22 27 -43 49 -47 49 -13 0 -154 -99 -188
-132 l-32 -30 29 -43 c16 -24 29 -46 29 -49 0 -4 -23 -36 -50 -72 -28 -36 -57
-79 -66 -96 -11 -21 -20 -28 -32 -23 -9 4 -36 13 -60 20 l-43 13 -19 -43 c-26
-61 -62 -184 -58 -197 2 -6 31 -21 64 -34 32 -12 59 -27 58 -33 -1 -6 -2 -51
-2 -99 l-2 -88 -55 -18 c-30 -9 -57 -20 -59 -25 -6 -8 34 -167 53 -215 9 -23
16 -27 34 -22 12 3 40 9 62 12 39 6 41 5 64 -37 14 -24 44 -69 68 -100 24 -30
43 -59 43 -63 0 -4 -14 -27 -30 -51 l-30 -44 51 -48 c58 -54 149 -122 164
-123 6 0 28 22 49 48 l38 48 80 -23 c44 -13 91 -23 104 -23 23 0 24 -3 24 -70
l0 -70 134 0 c152 0 146 -4 146 93 0 40 3 47 19 47 11 0 57 12 103 26 45 15
84 22 85 17 7 -19 65 -93 73 -93 13 0 162 114 194 148 l28 31 -36 44 -37 45
26 28 c14 15 47 61 73 102 l46 73 41 -7 c88 -16 86 -18 116 76 15 47 30 101
34 120 l6 36 -58 20 -58 21 0 98 0 98 58 20 c46 15 57 23 57 40 0 28 -56 217
-67 228 -5 5 -36 0 -69 -10 l-61 -18 -31 52 c-17 29 -49 73 -71 100 l-39 47
34 48 35 48 -101 76 c-56 42 -107 76 -115 76 -7 0 -30 -20 -50 -44 l-36 -44
-75 24 c-41 13 -83 24 -94 24 -26 0 -29 8 -32 79 l-2 61 -138 0 -138 0 0 -59z
m295 -237 c131 -31 258 -117 344 -232 28 -37 51 -72 51 -78 0 -6 -19 -17 -42
-23 -24 -7 -54 -19 -67 -26 -23 -12 -27 -9 -63 39 -94 125 -220 186 -385 186
-141 0 -247 -45 -341 -144 -137 -145 -169 -367 -78 -550 75 -152 241 -265 389
-266 l37 0 0 -81 0 -82 -67 6 c-126 11 -264 69 -363 154 -59 50 -146 188 -176
278 -24 70 -28 95 -27 200 0 104 3 131 27 200 112 330 422 500 761 419z m-59
-331 c69 -23 144 -101 173 -178 68 -180 -54 -377 -244 -393 -164 -13 -298 98
-321 265 -16 125 75 266 201 311 46 16 136 14 191 -5z"/>
<path d="M3725 6819 c-30 -26 -35 -37 -35 -73 1 -134 189 -143 207 -9 5 39 2
46 -30 78 -47 47 -92 48 -142 4z"/>
<path d="M2700 7163 c-54 -20 -69 -92 -27 -131 50 -47 127 -11 127 58 0 56
-49 92 -100 73z"/>
<path d="M7405 7161 c-33 -14 -47 -38 -47 -78 0 -67 70 -96 126 -52 32 25 37
86 9 112 -23 20 -63 28 -88 18z"/>
<path d="M4898 6734 c-23 -12 -28 -21 -28 -53 0 -66 66 -96 110 -49 54 58 -12
140 -82 102z"/>
<path d="M5272 6740 c-66 -27 -37 -130 37 -130 24 0 61 45 61 75 0 40 -55 71
-98 55z"/>
<path d="M5075 6587 c-52 -44 -27 -127 37 -127 35 0 78 40 78 72 -1 31 -29 65
-61 73 -19 5 -33 0 -54 -18z"/>
<path d="M5035 6223 c-255 -205 -554 -419 -820 -585 -136 -86 -390 -236 -450
-266 -82 -42 -79 -36 -66 -148 38 -306 148 -679 275 -932 232 -462 500 -737
1025 -1052 l104 -62 36 17 c113 53 337 197 491 316 273 210 523 539 670 882
67 157 143 393 179 557 38 173 66 369 55 380 -5 4 -83 50 -174 100 -358 200
-772 481 -1125 763 -55 44 -104 83 -110 88 -5 4 -46 -22 -90 -58z m214 -407
c126 -96 434 -317 477 -342 16 -9 11 -14 -39 -32 -32 -12 -67 -22 -77 -22 -19
0 -20 -12 -20 -593 0 -579 1 -594 20 -615 17 -18 44 -27 110 -35 10 -2 16 -17
18 -49 2 -37 -1 -51 -17 -67 -20 -20 -32 -21 -311 -21 l-290 0 0 -258 c0 -142
-3 -261 -6 -265 -24 -23 -362 217 -534 380 -196 184 -347 439 -466 786 -42
124 -124 431 -124 467 0 11 28 34 83 65 344 200 722 456 987 669 25 20 47 36
49 36 2 0 65 -47 140 -104z"/>
<path d="M5315 5373 c-27 -2 -55 -9 -62 -15 -10 -8 -13 -128 -13 -568 l0 -558
32 -27 c27 -23 39 -26 77 -22 33 4 52 12 68 32 l23 26 0 548 c0 422 -3 551
-12 564 -16 19 -47 25 -113 20z"/>
<path d="M4806 5354 c-14 -14 -16 -78 -16 -557 0 -413 3 -548 13 -567 18 -36
74 -54 125 -40 74 19 72 -1 72 609 0 477 -2 541 -16 555 -11 12 -35 16 -89 16
-54 0 -78 -4 -89 -16z"/>
<path d="M4453 4875 c-23 -16 -23 -16 -23 -325 l0 -308 31 -26 c39 -33 114
-36 150 -7 l24 19 3 315 c3 283 1 315 -14 328 -25 21 -144 24 -171 4z"/>
<path d="M7337 4816 c-20 -8 -43 -19 -51 -25 -7 -6 -31 -9 -57 -6 -24 3 -118
2 -209 -3 -157 -7 -166 -7 -193 13 -21 15 -44 20 -88 20 -52 0 -62 -3 -90 -31
-54 -54 -50 -148 9 -194 34 -27 104 -27 148 1 19 11 34 25 34 30 0 5 91 9 214
9 182 0 215 -2 227 -16 21 -25 65 -44 104 -44 140 0 187 184 62 241 -49 22
-60 22 -110 5z"/>
<path d="M7741 4804 c-29 -37 -26 -70 8 -105 55 -55 131 -23 131 56 0 70 -96
104 -139 49z"/>
<path d="M3605 4363 c-114 -29 -128 -194 -20 -239 44 -18 69 -18 106 1 92 48
88 191 -6 231 -35 14 -46 15 -80 7z"/>
<path d="M3865 3865 c-46 -45 -24 -125 39 -141 34 -8 82 20 95 56 28 82 -73
147 -134 85z"/>
<path d="M6245 3865 c-74 -73 34 -186 110 -115 52 49 16 140 -55 140 -19 0
-40 -9 -55 -25z"/>
<path d="M4780 3103 c-52 -19 -69 -94 -30 -133 28 -28 81 -26 108 3 31 33 28
72 -7 108 -29 29 -42 33 -71 22z"/>
<path d="M5374 3086 c-54 -46 -26 -136 43 -136 88 0 109 119 27 150 -35 14
-39 13 -70 -14z"/>
<path d="M5060 2990 c-12 -12 -20 -33 -20 -55 0 -72 86 -104 129 -49 28 35 26
69 -4 99 -30 31 -77 33 -105 5z"/>
<path d="M7164 3155 c-49 -25 -50 -25 -330 -25 l-280 0 -170 -172 c-183 -186
-388 -398 -474 -490 -44 -49 -58 -58 -87 -58 -24 0 -44 -9 -71 -34 -34 -32
-37 -39 -37 -90 0 -49 4 -59 33 -88 28 -28 39 -33 81 -33 62 0 100 26 122 85
12 33 89 117 348 381 l333 339 238 0 c239 0 239 0 276 -25 125 -85 275 63 182
180 -21 27 -73 55 -101 55 -7 0 -36 -11 -63 -25z"/>
<path d="M2933 3150 c-40 -24 -53 -48 -53 -100 0 -111 109 -168 202 -105 37
25 38 25 275 25 l238 0 337 -337 c292 -294 338 -344 348 -380 19 -76 88 -108
163 -75 53 24 82 75 73 131 -7 45 -64 101 -103 101 -23 0 -86 60 -378 360
l-350 360 -285 0 c-267 0 -287 1 -315 20 -39 26 -110 26 -152 0z"/>
<path d="M3480 2720 c-30 -30 -27 -83 6 -109 36 -28 79 -27 109 4 30 30 32 64
4 99 -26 33 -88 37 -119 6z"/>
<path d="M6626 2718 c-18 -25 -21 -70 -6 -97 15 -29 64 -45 92 -30 34 18 47
40 48 77 0 45 -30 72 -79 72 -30 0 -44 -6 -55 -22z"/>
<path d="M4743 2160 c-47 -19 -57 -87 -18 -125 39 -40 96 -32 121 16 34 66
-34 138 -103 109z"/>
<path d="M5434 2160 c-26 -10 -54 -48 -54 -72 0 -32 23 -67 52 -79 40 -16 91
7 106 48 13 39 -8 90 -43 103 -30 12 -33 12 -61 0z"/>
<path d="M5090 2003 c-57 -21 -70 -96 -24 -132 37 -29 78 -27 103 5 26 33 27
75 4 102 -19 23 -59 34 -83 25z"/>
<path d="M5600 1711 c0 -6 4 -13 10 -16 6 -3 7 1 4 9 -7 18 -14 21 -14 7z"/>
</g>
</svg>
